<mxfile host="65bd71144e">
    <diagram id="sGEIN4FMLNw-AjZ7rJ3Y" name="Page-1">
        <mxGraphModel dx="989" dy="847" grid="1" gridSize="10" guides="1" tooltips="1" connect="1" arrows="1" fold="1" page="1" pageScale="1" pageWidth="850" pageHeight="1100" math="0" shadow="0">
            <root>
                <mxCell id="0"/>
                <mxCell id="1" parent="0"/>
                <mxCell id="2" value="Видать, так и придётся&lt;div&gt;обмазываться &lt;b&gt;Unit&lt;/b&gt;-тестами&lt;/div&gt;&lt;div&gt;&lt;br&gt;&lt;/div&gt;&lt;div&gt;&lt;br&gt;&lt;/div&gt;" style="whiteSpace=wrap;html=1;shape=mxgraph.basic.cloud_callout;fontSize=18;" vertex="1" parent="1">
                    <mxGeometry x="170" y="140" width="290" height="150" as="geometry"/>
                </mxCell>
            </root>
        </mxGraphModel>
    </diagram>
</mxfile>